<?xml version="1.0"?>
<svg xmlns="http://www.w3.org/2000/svg" xmlns:xlink="http://www.w3.org/1999/xlink" version="1.1" viewBox="0 0 192 192" width="400px" height="400px"><g fill="none" fill-rule="nonzero" stroke="none" stroke-width="1" stroke-linecap="butt" stroke-linejoin="miter" stroke-miterlimit="10" stroke-dasharray="" stroke-dashoffset="0" font-family="none" font-weight="none" font-size="none" text-anchor="none" style="mix-blend-mode: normal"><path d="M0,192v-192h192v192z" fill="none"/><g><g id="surface1"><path d="M116.71875,127.95312l11.3125,-11.3125l48.09375,48.09375l-11.3125,11.3125z" fill="#000000"/><path d="M144,80c0,35.34375 -28.65625,64 -64,64c-35.34375,0 -64,-28.65625 -64,-64c0,-35.34375 28.65625,-64 64,-64c35.34375,0 64,28.65625 64,64z" fill="#000000"/><path d="M129.82812,141.35938l11.3125,-11.3125l34.78125,34.79688l-11.3125,11.3125z" fill="#000000"/><path d="M132,80c0,28.71875 -23.28125,52 -52,52c-28.71875,0 -52,-23.28125 -52,-52c0,-28.71875 23.28125,-52 52,-52c28.71875,0 52,23.28125 52,52z" fill="#dcba00"/><path d="M107.59375,56.79688c-6.79688,-8 -16.79688,-12.79688 -27.59375,-12.79688c-10.79688,0 -20.79688,4.79688 -27.59375,12.79688c-1.60938,1.60938 -1.20313,4.40625 0.39062,5.60938c1.60938,1.59375 4.40625,1.1875 5.60938,-0.40625c5.59375,-6.40625 13.1875,-10 21.59375,-10c8.40625,0 16,3.59375 21.59375,10c0.8125,0.79688 2,1.59375 3.20312,1.59375c0.79688,0 2,-0.39063 2.40625,-0.79688c1.59375,-1.59375 1.59375,-4.39062 0.39063,-6z" fill=""/></g></g></g></svg>
