<?xml version="1.0"?>
<svg xmlns="http://www.w3.org/2000/svg" xmlns:xlink="http://www.w3.org/1999/xlink" version="1.1" viewBox="0 0 192 192" width="400px" height="400px"><g fill="none" fill-rule="nonzero" stroke="none" stroke-width="1" stroke-linecap="butt" stroke-linejoin="miter" stroke-miterlimit="10" stroke-dasharray="" stroke-dashoffset="0" font-family="none" font-weight="none" font-size="none" text-anchor="none" style="mix-blend-mode: normal"><path d="M0,192v-192h192v192z" fill="none"/><g id="Layer_1"><g><g fill="#000000"><ellipse cx="-0.00064" cy="90.5099" transform="rotate(-45) scale(1.49999,1.49999)" rx="55" ry="55"/></g><g fill="#f1c40f"><path d="M96,183c-23.25,0 -45.15,-9 -61.5,-25.5c-16.5,-16.35 -25.5,-38.25 -25.5,-61.5c0,-23.25 9,-45.15 25.5,-61.5c16.5,-16.5 38.25,-25.5 61.5,-25.5c23.25,0 45.15,9 61.5,25.5v0v0c16.5,16.5 25.5,38.25 25.5,61.5c0,23.25 -9,45.15 -25.5,61.5c-16.35,16.5 -38.25,25.5 -61.5,25.5zM96,18c-20.85,0 -40.35,8.1 -55.2,22.8c-14.85,14.7 -22.8,34.35 -22.8,55.2c0,20.85 8.1,40.35 22.8,55.2c14.7,14.85 34.35,22.8 55.2,22.8c20.85,0 40.35,-8.1 55.2,-22.8c14.85,-14.7 22.8,-34.35 22.8,-55.2c0,-20.85 -8.1,-40.35 -22.8,-55.2v0c-14.85,-14.7 -34.35,-22.8 -55.2,-22.8z"/></g><g fill="#f1c40f"><path d="M102.3,96l16.95,-16.95c1.8,-1.8 1.8,-4.65 0,-6.3c-1.8,-1.8 -4.65,-1.8 -6.3,0l-16.95,16.95l-16.95,-17.1c-1.8,-1.8 -4.65,-1.8 -6.3,0c-1.8,1.8 -1.8,4.65 0,6.3l16.95,17.1l-17.1,16.95c-1.8,1.8 -1.8,4.65 0,6.3c0.9,0.9 2.1,1.35 3.15,1.35c1.05,0 2.25,-0.45 3.15,-1.35l17.1,-16.95l16.95,16.95c0.9,0.9 2.1,1.35 3.15,1.35c1.05,0 2.25,-0.45 3.15,-1.35c1.8,-1.8 1.8,-4.65 0,-6.3z"/></g></g></g></g></svg>
