<?xml version="1.0" ?><!DOCTYPE svg  PUBLIC '-//W3C//DTD SVG 1.1//EN'  'http://www.w3.org/Graphics/SVG/1.1/DTD/svg11.dtd'><svg height="100%" style="fill-rule:evenodd;clip-rule:evenodd;stroke-linejoin:round;stroke-miterlimit:1.41421;" version="1.1" viewBox="0 0 101 126" width="100%" xml:space="preserve" xmlns="http://www.w3.org/2000/svg" xmlns:serif="http://www.serif.com/" xmlns:xlink="http://www.w3.org/1999/xlink"><g><path d="M47.511,103.921c0.8,0.8 1.8,1.2 2.8,1.2c1,0 2,-0.4 2.8,-1.2l22.2,-22.2c13.8,-13.8 13.8,-36.3 0,-50.1c-13.8,-13.8 -36.2,-13.8 -50,0c-13.8,13.8 -13.8,36.3 0,50.1l22.2,22.2Z" style="fill:#ff1515;fill-rule:nonzero;"/><clipPath id="_clip1"><path clip-rule="nonzero" d="M47.511,103.921c0.8,0.8 1.8,1.2 2.8,1.2c1,0 2,-0.4 2.8,-1.2l22.2,-22.2c13.8,-13.8 13.8,-36.3 0,-50.1c-13.8,-13.8 -36.2,-13.8 -50,0c-13.8,13.8 -13.8,36.3 0,50.1l22.2,22.2Z"/></clipPath><g clip-path="url(#_clip1)"><rect height="91.833" style="fill:#e11313;" width="37" x="50.311" y="18.217"/></g><path d="M48.138,97.527l0,3.925l-21.382,-21.382c9.504,8.784 18.463,16.158 21.382,17.457Z" style="fill:#fff;fill-opacity:0.5;"/><path d="M50.311,67.721c8,0 14.5,-6.5 14.5,-14.5c0,-8 -6.5,-14.5 -14.5,-14.5c-8,0 -14.5,6.5 -14.5,14.5c0,8 6.5,14.5 14.5,14.5Z" style="fill:#c51010;fill-rule:nonzero;"/><clipPath id="_clip2"><path clip-rule="nonzero" d="M50.311,67.721c8,0 14.5,-6.5 14.5,-14.5c0,-8 -6.5,-14.5 -14.5,-14.5c-8,0 -14.5,6.5 -14.5,14.5c0,8 6.5,14.5 14.5,14.5Z"/></clipPath><g clip-path="url(#_clip2)"><rect height="44" style="fill:#e11313;" width="21" x="29.311" y="30.696"/></g><path d="M29.314,31.637l-1.015,2.984c-4.339,4.627 -6.233,7.69 -9.686,13.184c1.655,-5.241 4.555,-10.168 8.698,-14.312c0.649,-0.649 1.318,-1.268 2.003,-1.856Z" style="fill:#fff;fill-opacity:0.5;"/></g></svg>