<?xml version="1.0"?>
<svg xmlns="http://www.w3.org/2000/svg" xmlns:xlink="http://www.w3.org/1999/xlink" version="1.1" viewBox="0 0 192 192" width="40px" height="40px"><g fill="none" fill-rule="nonzero" stroke="none" stroke-width="1" stroke-linecap="butt" stroke-linejoin="miter" stroke-miterlimit="10" stroke-dasharray="" stroke-dashoffset="0" font-family="none" font-weight="none" font-size="none" text-anchor="none" style="mix-blend-mode: normal"><path d="M0,192v-192h192v192z" fill="none"/><g id="Layer_1"><g><path d="M96,184.8c-48.9648,0 -88.8,-39.8352 -88.8,-88.8c0,-48.9648 39.8352,-88.8 88.8,-88.8c48.9648,0 88.8,39.8352 88.8,88.8c0,48.9648 -39.8352,88.8 -88.8,88.8z" fill="#000000"/><g fill="#f1c40f"><path d="M96,9.6c47.64,0 86.4,38.76 86.4,86.4c0,47.64 -38.76,86.4 -86.4,86.4c-47.64,0 -86.4,-38.76 -86.4,-86.4c0,-47.64 38.76,-86.4 86.4,-86.4M96,4.8c-50.3664,0 -91.2,40.8336 -91.2,91.2c0,50.3664 40.8336,91.2 91.2,91.2c50.3664,0 91.2,-40.8336 91.2,-91.2c0,-50.3664 -40.8336,-91.2 -91.2,-91.2z"/></g></g><rect x="10" y="18" transform="scale(4.8,4.8)" width="20" height="4" fill="#f1c40f"/><rect x="10" y="-22" transform="rotate(90) scale(4.8,4.8)" width="20" height="4" fill="#f1c40f"/></g></g></svg>
