<?xml version="1.0"?>
<svg xmlns="http://www.w3.org/2000/svg" xmlns:xlink="http://www.w3.org/1999/xlink" version="1.1" viewBox="0 0 192 192" width="80px" height="80px"><g transform="translate(5.664,5.664) scale(0.941,0.941)"><g fill="none" fill-rule="nonzero" stroke="none" stroke-width="none" stroke-linecap="butt" stroke-linejoin="none" stroke-miterlimit="10" stroke-dasharray="" stroke-dashoffset="0" font-family="none" font-weight="none" font-size="none" text-anchor="none" style="mix-blend-mode: normal"><g id="Layer_1 1" stroke="#f1c40f" stroke-width="12" stroke-linejoin="round"><g><path d="M96,184.8c-48.9648,0 -88.8,-39.8352 -88.8,-88.8c0,-48.9648 39.8352,-88.8 88.8,-88.8c48.9648,0 88.8,39.8352 88.8,88.8c0,48.9648 -39.8352,88.8 -88.8,88.8z" fill="#000000"/><g fill="#f1c40f"><path d="M96,9.6c-47.64,0 -86.4,38.76 -86.4,86.4c0,47.64 38.76,86.4 86.4,86.4c47.64,0 86.4,-38.76 86.4,-86.4c0,-47.64 -38.76,-86.4 -86.4,-86.4M96,4.8c50.3664,0 91.2,40.8336 91.2,91.2c0,50.3664 -40.8336,91.2 -91.2,91.2c-50.3664,0 -91.2,-40.8336 -91.2,-91.2c0,-50.3664 40.8336,-91.2 91.2,-91.2z"/></g></g><path d="M86.4,57.6c0,-5.30193 4.29807,-9.6 9.6,-9.6c5.30193,0 9.6,4.29807 9.6,9.6c0,5.30193 -4.29807,9.6 -9.6,9.6c-5.30193,0 -9.6,-4.29807 -9.6,-9.6z" fill="#f1c40f"/><g fill="#f1c40f"><path d="M110.4,134.4v4.8h-28.8v-4.8h4.8v-52.8h-4.8v-4.8h24v57.6z"/></g></g><path d="M0,192v-192h192v192z" fill="none" stroke="none" stroke-width="1" stroke-linejoin="miter"/><g id="Layer_1" stroke="none" stroke-width="1" stroke-linejoin="miter"><g><path d="M96,184.8c-48.9648,0 -88.8,-39.8352 -88.8,-88.8c0,-48.9648 39.8352,-88.8 88.8,-88.8c48.9648,0 88.8,39.8352 88.8,88.8c0,48.9648 -39.8352,88.8 -88.8,88.8z" fill="#000000"/><g fill="#f1c40f"><path d="M96,9.6c47.64,0 86.4,38.76 86.4,86.4c0,47.64 -38.76,86.4 -86.4,86.4c-47.64,0 -86.4,-38.76 -86.4,-86.4c0,-47.64 38.76,-86.4 86.4,-86.4M96,4.8c-50.3664,0 -91.2,40.8336 -91.2,91.2c0,50.3664 40.8336,91.2 91.2,91.2c50.3664,0 91.2,-40.8336 91.2,-91.2c0,-50.3664 -40.8336,-91.2 -91.2,-91.2z"/></g></g><circle cx="20" cy="12" transform="scale(4.8,4.8)" r="2" fill="#f1c40f"/><g fill="#f1c40f"><path d="M105.6,134.4v-57.6h-24v4.8h4.8v52.8h-4.8v4.8h28.8v-4.8z"/></g></g><path d="M96,192c-53.01934,0 -96,-42.98066 -96,-96v0c0,-53.01934 42.98066,-96 96,-96h0c53.01934,0 96,42.98066 96,96v0c0,53.01934 -42.98066,96 -96,96z" fill="none" stroke="none" stroke-width="1" stroke-linejoin="miter"/><path d="M96,188.16c-50.89856,0 -92.16,-41.26144 -92.16,-92.16v0c0,-50.89856 41.26144,-92.16 92.16,-92.16h0c50.89856,0 92.16,41.26144 92.16,92.16v0c0,50.89856 -41.26144,92.16 -92.16,92.16z" fill="none" stroke="none" stroke-width="1" stroke-linejoin="miter"/><path d="M0,192v-192h192v192z" fill="none" stroke="none" stroke-width="1" stroke-linejoin="miter"/><path d="M3.84,188.16v-184.32h184.32v184.32z" fill="none" stroke="none" stroke-width="1" stroke-linejoin="miter"/><path d="" fill="none" stroke="none" stroke-width="1" stroke-linejoin="miter"/><path d="" fill="none" stroke="none" stroke-width="1" stroke-linejoin="miter"/><path d="" fill="none" stroke="none" stroke-width="1" stroke-linejoin="miter"/><path d="" fill="none" stroke="none" stroke-width="1" stroke-linejoin="miter"/></g></g></svg>
