<?xml version="1.0"?>
<svg xmlns="http://www.w3.org/2000/svg" xmlns:xlink="http://www.w3.org/1999/xlink" version="1.1" viewBox="0 0 192 192" width="64px" height="64px"><g fill="none" fill-rule="nonzero" stroke="none" stroke-width="1" stroke-linecap="butt" stroke-linejoin="miter" stroke-miterlimit="10" stroke-dasharray="" stroke-dashoffset="0" font-family="none" font-weight="none" font-size="none" text-anchor="none" style="mix-blend-mode: normal"><path d="M0,192v-192h192v192z" fill="none"/><g id="Layer_1"><g fill="#000000"><g><path d="M2.9625,96c0,-51.375 41.6625,-93.0375 93.0375,-93.0375c51.375,0 93.0375,41.6625 93.0375,93.0375c0,51.375 -41.6625,93.0375 -93.0375,93.0375c-51.375,0 -93.0375,-41.6625 -93.0375,-93.0375z"/></g></g><g><rect x="133.7" y="240.2" transform="scale(0.375,0.375)" width="244.6" height="159.8" fill="#f1c40f"/><g fill="#f1c40f"><path d="M131.1375,127.5375c-2.8875,0 -5.25,-2.3625 -5.25,-5.25v-51c0,-16.5 -13.425,-29.925 -29.925,-29.925c-16.5,0 -29.925,13.425 -29.925,29.925v51c0,2.8875 -2.3625,5.25 -5.25,5.25c-2.8875,0 -5.25,-2.3625 -5.25,-5.25v-51c0,-22.275 18.1125,-40.3875 40.3875,-40.3875c22.275,0 40.3875,18.1125 40.3875,40.3875v51c0.075,2.925 -2.2875,5.25 -5.175,5.25z"/></g><path d="M105.975,115.9875c0,-5.5125 -4.4625,-9.975 -9.975,-9.975c-5.5125,0 -9.975,4.4625 -9.975,9.975c0,3.525 1.8,6.6 4.5375,8.3625c0,1.575 0,3.525 0,4.3125c0,3 2.4375,5.4375 5.4375,5.4375c3,0 5.4375,-2.4375 5.4375,-5.4375c0,-0.75 0,-2.7 0,-4.3125c2.7375,-1.7625 4.5375,-4.875 4.5375,-8.3625z" fill="#000000"/></g></g></g></svg>
