<?xml version="1.0"?>
<svg xmlns="http://www.w3.org/2000/svg" xmlns:xlink="http://www.w3.org/1999/xlink" version="1.1" viewBox="0 0 192 192" width="80px" height="80px"><g fill="none" fill-rule="nonzero" stroke="none" stroke-width="1" stroke-linecap="butt" stroke-linejoin="miter" stroke-miterlimit="10" stroke-dasharray="" stroke-dashoffset="0" font-family="none" font-weight="none" font-size="none" text-anchor="none" style="mix-blend-mode: normal"><path d="M0,192v-192h192v192z" fill="none"/><g><g id="surface1"><path d="M16.8,184.8v-121.03125l79.18125,-46.59375l79.21875,46.59375v121.03125z" fill="#000000"/><path d="M95.98125,19.96875l76.81875,45.16875v117.2625h-153.6v-117.2625l76.78125,-45.16875M95.98125,14.4l-81.58125,48v124.8h163.2v-124.8z" fill="#f1c40f"/><path d="M95.98125,22.29375l-88.78125,54.28125v-14.68125l88.78125,-54.28125l88.81875,54.28125v14.68125z" fill="#000000"/><path d="M95.98125,10.425l86.41875,52.81875v9.05625l-83.90625,-51.28125l-2.5125,-1.5375l-2.49375,1.5375l-83.8875,51.28125v-9.05625l86.38125,-52.81875M95.98125,4.8l-91.18125,55.74375v20.325l91.18125,-55.7625l91.21875,55.7625v-20.325z" fill="#f1c40f"/><path d="M69.6,103.2h52.8v81.6h-52.8z" fill="#000000"/><path d="M120,105.6v76.8h-48v-76.8h48M124.8,100.8h-57.6v86.4h57.6z" fill="#f1c40f"/><path d="M115.2,148.8c0,2.64375 -2.15625,4.8 -4.8,4.8c-2.64375,0 -4.8,-2.15625 -4.8,-4.8c0,-2.64375 2.15625,-4.8 4.8,-4.8c2.64375,0 4.8,2.15625 4.8,4.8z" fill="#f1c40f"/></g></g></g></svg>
