<svg xmlns="http://www.w3.org/2000/svg" viewBox="0 0 264 90"><title>dokmeAsset 4hdpi</title><g id="Layer_2" data-name="Layer 2"><g id="Objects"><path d="M241.3,3H22.7C11,3,10.6,45,1.5,45c8.7,0,9.5,42,21.2,42H241.3c11.7,0,12.5-42,21.2-42C253.4,45,253,3,241.3,3Z" fill="#b19604"/><path d="M263.6,42.9c-.3-.6-.7-.9-1.1-.9a2.9,2.9,0,0,1-2.3-1.4c-1.2-1.5-2.4-4.6-3.5-8.6-1.8-5.9-3.4-13.6-5.6-20.1a32.8,32.8,0,0,0-4-8.4c-1.7-2.1-3.6-3.5-5.8-3.5H22.7a6.5,6.5,0,0,0-4.5,2.1C15.8,4.5,14,8.5,12.6,12.8c-2.2,6.6-3.8,14.3-5.5,20.1a36.7,36.7,0,0,1-2.7,6.8A8.5,8.5,0,0,1,3,41.4a2,2,0,0,1-1.5.6c-.4,0-.8.3-1.1.9a5.7,5.7,0,0,0,0,4.2c.3.6.7.9,1.1.9a2.9,2.9,0,0,1,2.1,1.3C4.8,50.8,6,54,7.1,58c1.8,6,3.4,13.7,5.7,20.1a36.5,36.5,0,0,0,4.1,8.4c1.7,2.1,3.6,3.5,5.8,3.5H241.3a7,7,0,0,0,4.6-2.1c2.3-2.4,4.1-6.3,5.6-10.7,2.2-6.6,3.9-14.3,5.6-20.1a34,34,0,0,1,2.7-6.8,6.3,6.3,0,0,1,1.3-1.7,2,2,0,0,1,1.4-.6c.4,0,.8-.3,1.1-.9a5.7,5.7,0,0,0,0-4.2ZM254.2,55c-1.8,6.4-3.5,13.9-5.5,19.6a25.3,25.3,0,0,1-3.3,6.8c-1.2,1.6-2.5,2.5-4.1,2.5H22.7a4.4,4.4,0,0,1-3.2-1.5c-1.7-1.6-3.1-4.7-4.5-8.6C13,67.9,11.4,60.4,9.5,54a46.4,46.4,0,0,0-3.2-8.3,2.1,2.1,0,0,1-.4-.6C7.6,42.6,8.8,39,10,35c1.8-6.4,3.4-14,5.4-19.7a26.1,26.1,0,0,1,3.3-6.7c1.2-1.6,2.4-2.5,4-2.5H241.3a4.4,4.4,0,0,1,3.2,1.5c1.6,1.6,3.1,4.7,4.4,8.6,1.9,5.8,3.5,13.4,5.4,19.8a39.9,39.9,0,0,0,3.3,8.3,5.6,5.6,0,0,0,.5.8A38.5,38.5,0,0,0,254.2,55Z" fill="#b0b3a2"/></g></g></svg>
